<?xml version="1.0" encoding="utf-8"?>
<!-- Generator: Adobe Illustrator 17.1.0, SVG Export Plug-In . SVG Version: 6.00 Build 0)  -->
<!DOCTYPE svg PUBLIC "-//W3C//DTD SVG 1.1//EN" "http://www.w3.org/Graphics/SVG/1.1/DTD/svg11.dtd">
<svg version="1.1" id="Layer_1" xmlns="http://www.w3.org/2000/svg" xmlns:xlink="http://www.w3.org/1999/xlink" x="0px" y="0px"
	 viewBox="0 0 415.2 415.6" enable-background="new 0 0 415.2 415.6" xml:space="preserve">
<circle fill="#FCFCFC" cx="205.7" cy="196" r="141"/>
<g>
	<path fill="#4B7CFE" d="M207.9,415.6C91.3,415.6-0.7,323.4,0,207.3C0.7,89.8,92.6-1.1,211.6,0c112,1.1,205.1,95,203.7,210.8
		C413.6,324.1,322.1,415.6,207.9,415.6z M109.3,275.7c29.9,55.2,82.1,60.5,130,50.2c20.2-4.4,38.5-12.6,51.3-29.1
		c20-25.5,27.7-55.2,28.4-87.6c-7.9,1.5-12.5,10.6-21.3,8.4c12.8-29.9,12.8-52.6-1.1-71.1c-5.3,30.1-23.3,46.7-53.3,55.2
		c11.7-24.4,12.1-44.9-4.9-63.8c-17.8-19.6-37.4-37.8-52.2-63.6c-0.5,10.6,0.5,18.3,1.3,26c1.3,14.3,0.5,28.4-10.3,39.6
		c-5.1,5.3-11.5,8.8-19.1,5.5c-7.9-3.7-9.5-10.8-8.6-18.7c0.4-3.1,2-6.4-0.4-10.4c-19.8,13.2-28,32.3-29.3,54.8
		c-1.3,19.4,3.1,38.3,7.7,57.2c1.3,5.1,4.6,10.1,2.2,16.9c-15-15.4-23.8-36.5-26.4-56.8c1.6-2,0,0,0,0s-0.2-3.1,0,0
		c-3.8,8.4-9.3,8.6-10.4,29.9C91.7,239.6,109.3,275.7,109.3,275.7z"/>
</g>
</svg>
