<?xml version="1.0" encoding="utf-8"?>
<!-- Generator: Adobe Illustrator 17.0.0, SVG Export Plug-In . SVG Version: 6.00 Build 0)  -->
<!DOCTYPE svg PUBLIC "-//W3C//DTD SVG 1.1//EN" "http://www.w3.org/Graphics/SVG/1.1/DTD/svg11.dtd">
<svg version="1.1" id="Layer_1" xmlns="http://www.w3.org/2000/svg" xmlns:xlink="http://www.w3.org/1999/xlink" x="0px" y="0px"
	 width="840.723px" height="250.713px" viewBox="0 0 840.723 250.713" enable-background="new 0 0 840.723 250.713"
	 xml:space="preserve">
<g enable-background="new    ">
	<path fill="#FFFFFF" d="M118.57,206.01c-6.971-0.13-12.768-0.195-17.391-0.195c-5.211,0-11.528,0.065-18.953,0.195l0.559-12.402
		c-2.539,2.475-4.752,4.477-6.64,6.006c-1.887,1.53-4.312,3.012-7.271,4.443c-2.962,1.433-6.151,2.539-9.567,3.32
		c-3.417,0.781-6.947,1.172-10.592,1.172c-6.248,0-12.089-1.14-17.522-3.418c-5.436-2.278-10.073-5.518-13.912-9.717
		c-3.839-4.199-6.703-9.18-8.591-14.941s-2.831-11.733-2.831-17.92c0-8.789,1.726-17.383,5.179-25.781s7.965-15.005,13.536-19.824
		c5.569-4.817,11.856-8.218,18.86-10.205c7.003-1.985,14.576-2.979,22.722-2.979c5.407,0,11.727,0.488,18.959,1.465
		c0.513-7.747,0.866-18.587,1.061-32.52c7.998,0.131,14.534,0.195,19.607,0.195c6.567,0,13.202-0.064,19.9-0.195
		c-1.885,19.336-3.541,42.937-4.97,70.8C119.284,171.376,118.57,192.208,118.57,206.01z M83.778,130.62
		c-3.458-0.781-6.721-1.172-9.787-1.172c-6.33,0-11.712,1.221-16.148,3.662c-4.438,2.441-7.847,6.25-10.227,11.426
		c-2.382,5.176-3.572,10.271-3.572,15.283c0,3.776,0.668,7.178,2.007,10.205c1.336,3.027,3.392,5.42,6.164,7.178
		s5.856,2.637,9.25,2.637c3.588,0,6.865-1.009,9.834-3.027c2.97-2.017,5.384-4.98,7.244-8.887c1.858-3.906,3.131-8.545,3.815-13.916
		C83.041,148.637,83.515,140.841,83.778,130.62z"/>
	<path fill="#FFFFFF" d="M140.43,206.01l3.022-43.359l0.976-24.902c0.063-4.492,0.098-9.082,0.098-13.769
		c0-4.751-0.065-10.645-0.195-17.676c7.878,0.131,14.13,0.195,18.753,0.195c5.404,0,11.622-0.064,18.655-0.195l-0.407,11.035
		c2.539-2.864,4.623-4.996,6.253-6.396c1.628-1.399,3.485-2.669,5.569-3.809c2.084-1.138,4.267-1.985,6.546-2.539
		c2.28-0.552,4.657-0.83,7.132-0.83c2.346,0,4.952,0.327,7.817,0.977c0.064,7.097,0.228,12.956,0.488,17.578l0.684,15.039
		c-3.578-1.04-6.928-1.562-10.05-1.562c-3.902,0-7.271,0.571-10.1,1.709c-2.829,1.14-5.334,2.866-7.514,5.176
		c-2.179,2.312-3.92,5.192-5.22,8.643c-1.302,3.452-2.212,8.921-2.732,16.406c-0.521,7.487-0.78,16.049-0.78,25.684
		c0,3.386,0.13,7.585,0.391,12.598c-6.32-0.13-12.674-0.195-19.058-0.195C154.438,205.815,147.662,205.88,140.43,206.01z"/>
	<path fill="#FFFFFF" d="M225.879,206.01c0.906-7.942,1.585-14.485,2.039-19.629c0.453-5.143,0.891-11.719,1.312-19.727
		c0.422-8.008,0.794-16.86,1.117-26.562c0.323-9.7,0.581-20.962,0.776-33.789c8.469,0.131,15.245,0.195,20.328,0.195
		c4.625,0,11.271-0.064,19.936-0.195c-1.12,12.305-1.926,23.112-2.419,32.421c-0.494,9.312-0.806,19.175-0.937,29.59
		c-0.264,18.49-0.396,31.055-0.396,37.695c-7.74-0.13-14.407-0.195-20.001-0.195C242.107,205.815,234.855,205.88,225.879,206.01z"/>
	<path fill="#FFFFFF" d="M288.672,206.01l1.746-21.012l3.779-73.002l1.066-39.287c9.061,0.131,15.872,0.195,20.435,0.195
		c5.931,0,12.481-0.064,19.653-0.195l-2.229,29.98l-3.587,73.828l-0.775,29.492c-6.975-0.064-13.265-0.098-18.87-0.098
		L288.672,206.01z"/>
	<path fill="#FFFFFF" d="M350.586,206.01l1.746-21.012l3.779-73.002l1.066-39.287c9.061,0.131,15.872,0.195,20.435,0.195
		c5.931,0,12.481-0.064,19.653-0.195l-2.229,29.98l-3.587,73.828l-0.775,29.492c-6.975-0.064-13.265-0.098-18.87-0.098
		L350.586,206.01z"/>
	<path fill="#FFFFFF" d="M411.621,206.01l2.42-19.727l6.005-68.457l3.001-45.117c12.021,0.131,21.463,0.195,28.325,0.195
		c5.684,0,14.373-0.064,26.069-0.195c0.844,5.6,1.558,9.848,2.143,12.744c0.584,2.897,2.029,8.562,4.335,16.992
		c2.304,8.432,4.155,15.723,5.551,21.875c1.395,6.152,3.49,16.684,6.282,31.591c2.869-10.22,5.478-19.009,7.826-26.367
		c2.347-7.356,5.282-15.723,8.805-25.098c3.521-9.375,5.756-15.511,6.701-18.408c0.946-2.896,2.234-7.339,3.865-13.33
		c9.766,0.131,19.336,0.195,28.711,0.195c6.38,0,15.234-0.064,26.562-0.195c-1.237,21.94-2.051,40.788-2.441,56.543
		c-0.847,30.859-1.27,52.083-1.27,63.671c0,2.409,0.064,6.771,0.195,13.086c-8.594-0.13-14.616-0.195-18.066-0.195
		c-5.014,0-11.166,0.065-18.457,0.195c0.529-5.859,1.19-19.808,1.983-41.846c0.794-22.036,1.19-36.116,1.19-42.236
		c0-2.669-0.065-6.38-0.195-11.133l-12.812,39.746l-18.389,55.469c-8.464-0.13-14.291-0.195-17.48-0.195
		c-4.037,0-10.222,0.065-18.555,0.195l-12.039-53.711l-7.047-28.613c-0.262-1.106-0.555-2.474-0.882-4.102
		c-0.326-1.626-0.849-4.492-1.565-8.594l-2.461,27.05l-3.249,55.469l-0.296,12.5c-8.984-0.13-14.714-0.195-17.188-0.195
		C425.814,205.815,419.954,205.88,411.621,206.01z"/>
	<path fill="#FFFFFF" d="M606.055,134.721c1.236-6.445,2.018-10.888,2.344-13.33c0.325-2.441,0.846-6.265,1.562-11.475
		c18.75-4.102,34.865-6.152,48.345-6.152c7.683,0,14.715,0.864,21.097,2.588c6.381,1.726,11.363,4.509,14.944,8.35
		c3.581,3.842,5.373,9.343,5.373,16.503c0,3.647-0.488,11.851-1.462,24.609c-0.974,12.761-1.722,29.492-2.24,50.195
		c-6.385-0.13-12.735-0.195-19.054-0.195c-6.123,0-12.638,0.065-19.542,0.195c0.888-7.161,1.874-21.939,2.954-44.336
		c-2.469,1.172-4.4,2.019-5.797,2.539c-1.397,0.522-3.85,1.304-7.356,2.344c-3.506,1.042-6.251,1.921-8.231,2.637
		c-1.981,0.718-3.702,1.628-5.164,2.734c-1.462,1.108-2.501,2.246-3.117,3.418s-0.925,2.476-0.925,3.906
		c0,2.214,0.879,4.102,2.637,5.664s4.557,2.344,8.398,2.344c1.367,0,2.832-0.113,4.395-0.342c1.562-0.228,3.711-0.797,6.445-1.709
		c-1.889,5.014-4.135,12.338-6.738,21.973c-5.6,0.911-10.905,1.367-15.918,1.367c-8.073,0-14.795-1.123-20.166-3.369
		s-9.506-5.875-12.402-10.889c-2.897-5.013-4.346-10.025-4.346-15.039c0-3.06,0.535-6.055,1.609-8.984s2.75-5.794,5.028-8.594
		c2.276-2.798,4.945-5.19,8.005-7.178c3.058-1.985,7.24-3.857,12.544-5.615s12.022-3.418,20.158-4.98
		c3.385-0.649,6.491-1.351,9.323-2.1c2.831-0.747,4.848-1.399,6.052-1.953c1.204-0.552,2.181-1.204,2.928-1.953
		c0.748-0.747,1.285-1.528,1.611-2.344c0.325-0.813,0.488-1.675,0.488-2.588c0-2.473-1.042-4.377-3.123-5.712
		c-2.083-1.333-5.141-2.002-9.175-2.002C636.345,125.249,622.518,128.407,606.055,134.721z"/>
	<path fill="#FFFFFF" d="M715.039,251.713c1.234-13.347,2.275-26.66,3.12-39.941c1.496-22.721,2.52-41.78,3.072-57.178
		c0.552-15.396,0.83-30.647,0.83-45.751c13.217-2.017,23.568-3.369,31.056-4.053s14.976-1.025,22.464-1.025
		c9.375,0,18.003,0.977,25.881,2.93s14.21,5.405,18.995,10.352c4.785,4.948,8.384,10.84,10.793,17.675
		c2.408,6.836,3.613,13.999,3.613,21.484c0,6.836-0.977,13.462-2.928,19.873c-1.952,6.413-4.944,12.191-8.978,17.334
		c-4.032,5.144-8.667,8.952-13.903,11.426c-5.237,2.474-11.075,3.711-17.514,3.711c-3.188,0-6.488-0.31-9.903-0.928
		c-3.415-0.619-6.651-1.514-9.709-2.686c-3.059-1.172-5.611-2.359-7.66-3.564c-2.049-1.204-4.603-2.945-7.658-5.225l-1.085,27.246
		c-0.461,12.5-0.691,21.939-0.691,28.32c-7.562-0.131-14.047-0.195-19.458-0.195C730.683,251.518,723.904,251.582,715.039,251.713z
		 M760.059,133.744c-0.524,2.93-0.885,5.322-1.08,7.178c-0.197,1.855-0.394,4.362-0.589,7.52c-0.197,3.159-0.295,5.681-0.295,7.568
		c0,5.339,0.83,9.814,2.49,13.428s3.974,6.413,6.937,8.398c2.964,1.987,6.138,2.979,9.523,2.979c3.581,0,6.869-1.025,9.866-3.076
		c2.995-2.051,5.372-5.127,7.13-9.229s2.639-8.724,2.639-13.867c0-6.966-1.84-12.563-5.518-16.797
		c-3.679-4.231-9.033-6.348-16.064-6.348C770.67,131.498,765.657,132.247,760.059,133.744z"/>
</g>
<path fill="#B5D2EE" d="M241.509,7.359c0,1.668-0.005,3.394,0.252,5.007c0.058,0.36,0.131,0.891,0.152,1.189
	c0.014,0.2-0.007,0.403,0.021,0.597c0.074,0.523,0.157,0.527,0.278,1.681c0.204,1.933,0.223,3.795,0.179,5.728
	c-0.007,0.328-0.007,0.252-0.037,0.559c-0.082,0.872-0.105,1.642-0.253,2.539l-0.294,1.252c-0.391,1.163-0.512,1.856-1.069,3.056
	c-0.219,0.472-0.424,0.937-0.749,1.314c-0.22,0.257-0.122,0.151-0.302,0.42c-0.789,1.177-2.428,2.73-3.806,3.205
	c-0.38,0.131-0.202,0.055-0.498,0.224c-1.339,0.763-3.394,0.552-4.653-0.21l-0.691-0.443c-0.848-0.635-1.02-1.099-1.451-1.952
	c-0.153-0.301-0.304-0.567-0.354-0.883c-0.226-1.424-0.242-2.797-0.053-4.232c0.05-0.378,0.002-0.697,0.068-1.066
	c0.059-0.327,0.166-0.57,0.226-0.908c0.142-0.789,0.353-1.18,0.353-2.02c-0.405,0.034-0.449,0.138-0.788,0.347
	c-0.581,0.358-1.168,0.661-1.702,1.082l-2.194,1.828c-0.512,0.434-0.921,0.912-1.362,1.422l-0.188,0.224
	c-0.284,0.338-0.451,0.578-0.718,0.932l-0.837,1.122l-1.027,1.757c-0.062,0.155-0.042,0.154-0.111,0.302
	c-0.44,0.936-1.101,2.096-1.384,3.05c-0.128,0.43-0.235,0.854-0.412,1.238c-0.08,0.172-0.198,0.343-0.26,0.565l-0.526,1.846
	c-0.32,1.241-0.51,2.81-0.688,4.16c-0.104,0.792-0.1,2.176-0.17,3.026c-0.093,1.118,0.101,1.998,0.097,3.089
	c-0.007,2.119,0.276,3.948,0.563,5.832c0.073,0.481,0.009,1,0.118,1.428c0.074,0.292,0.117,0.299,0.188,0.638
	c0.054,0.259,0.053,0.456,0.102,0.722l0.513,2.787c0.045,0.201,0.086,0.405,0.141,0.582c0.185,0.6,0.199,1.423,0.399,2.076
	c0.131,0.428,0.249,0.759,0.363,1.184c0.206,0.765,0.323,1.638,0.564,2.426l0.081,0.228c0.008,0.026,0.017,0.052,0.023,0.08
	l0.264,1.18l1.501,4.895c-0.072,0.978-2.128-1.378-2.409-1.719l-2.806-3.69c-0.114-0.183-0.235-0.336-0.327-0.499
	c-0.423-0.751-1.082-1.9-1.369-2.653l-1.354-3.184l-1.106-3.225l-0.741-3.281c-0.054-0.44-0.192-0.881-0.267-1.281l-0.418-2.881
	c-0.047-0.332-0.054-0.422-0.098-0.728c-0.066-0.46-0.018-0.309-0.218-0.607c-0.59,0.396-0.677,1.27-1.011,1.876l-1.345,3.193
	c-0.156,0.653-0.375,1.235-0.608,1.867l-0.724,2.989c-0.061,0.425,0.009,0.731-0.082,1.156c-0.153,0.717-0.319,1.43-0.353,2.122
	c-0.033,0.685-0.024,1.134-0.119,1.737c-0.076,0.477-0.192,0.188-0.192,0.942c0,0.023,0.312,0.942,0.308,1.961
	c-0.003,0.785,0.187,1.371,0.282,1.987c0.107,0.703,0.148,1.3,0.295,1.973c0.146,0.67,0.379,1.137,0.456,1.814
	c0.079,0.704,0.352,1.121,0.53,1.738c0.091,0.314,0.096,0.547,0.242,0.893l1.302,3.235c0.592,1.389,1.565,3.166,2.325,4.481
	l1.711,2.619c0.012,0.019,0.028,0.044,0.04,0.063c0.012,0.019,0.029,0.044,0.041,0.062c0.598,0.916,1.274,1.733,2.034,2.503
	l1.093,1.175c0.347,0.385,0.192,0.501,0.683,0.555c0.032,0.39,0.125,0.418,0.391,0.641l5.101,4.283
	c0.149,0.096,0.101,0.059,0.251,0.161l1.139,0.821c0.019,0.012,0.044,0.028,0.063,0.04l2.672,1.762
	c0.247,0.133-0.092-0.144,0.319,0.197c0.606,0.503,1.364,0.835,1.987,1.313c0.578,0.442,1.3,0.703,1.951,1.04l3.599,1.453
	l2.26,0.627c1.091,0.366,1.323,0.365,2.354,0.636c0.384,0.101,0.759,0.19,1.136,0.308c0.524,0.164,0.759,0.062,1.255,0.189
	c0.803,0.206,1.595,0.437,2.439,0.551c0.433,0.059,0.865,0.101,1.23,0.213l4.023,0.411c3.161,0,6.42,0.21,9.544-0.251
	c1.09-0.16,2.277-0.255,3.338-0.476l3.091-0.725c1.742-0.439,3.031-1.06,4.646-1.645c0.312-0.113,0.54-0.219,0.862-0.374l4.09-2.2
	c0.943-0.627,2.26-1.527,3.08-2.283c0.015-0.014,0.036-0.036,0.052-0.05c0.022-0.02,0.085-0.079,0.108-0.098l0.439-0.283l1.58-1.513
	c0.228-0.264,0.069-0.085,0.322-0.296c0.701-0.586,1.259-1.375,1.843-2.076c0.105-0.126,0.021-0.026,0.147-0.163
	c0.015-0.016,0.037-0.037,0.051-0.053c0.543-0.59,1.005-1.275,1.473-1.93l1.521-2.294c0.083-0.142,0.138-0.266,0.206-0.413
	l1.101-1.993c0.097-0.166,0.122-0.238,0.201-0.417l0.438-0.903c0.102-0.181,0.107-0.208,0.194-0.425
	c0.146-0.365,0.221-0.502,0.381-0.856l0.782-1.796c0.165-0.394,0.071-0.521,0.311-0.926c0.205-0.346,0.963-2.439,1.043-2.876
	c0.118-0.642,0.402-1.313,0.581-1.895l0.562-2.016l0.812-4.242c0.075-0.36,0.061-0.689,0.135-1.103
	c0.418-2.331,0.228-2.725,0.506-4.547c0.124-0.81,0.021-2.165,0.223-2.975c0.08-0.321,0.158-0.38,0.158-0.77v-1.444
	c0-0.394,0.031-0.037-0.103-0.309c-0.466,0.051-0.632,0.451-0.956,0.693l-2.464,1.867c-0.613,0.417-1.187,0.832-1.877,1.113
	c-0.457,0.185-0.269,0.177-0.666,0.365c-0.217,0.103-0.495,0.179-0.752,0.279l-1.553,0.527c-0.253,0.091-0.589,0.214-0.554-0.157
	c0.022-0.239,0.458-0.711,0.605-0.945c0.011-0.019,0.029-0.043,0.04-0.062l0.154-0.259c0.258-0.548-0.115-0.153,0.348-0.58
	c0.395-0.364,0.897-1.445,1.108-1.986c0.1-0.255,0.167-0.445,0.283-0.645c0.196-0.336,0.194-0.218,0.331-0.701l0.978-3.043
	c0.524-1.767,0.749-3.503,0.749-5.439c0-1.229-0.044-2.288-0.208-3.4c-0.068-0.463-0.142-0.519-0.212-1.026
	c-0.281-2.018-0.615-3.188-1.244-5.047l-0.204-0.724c-0.31-0.911-0.672-1.707-1.049-2.56c-0.14-0.316-0.214-0.569-0.351-0.887
	l-0.413-0.825c-0.165-0.438-0.074-0.566-0.546-0.691c-0.361,0.683-0.422,2.526-0.711,3.311l-0.318,1.022
	c-0.109,0.372-0.189,0.661-0.321,1.019c-0.216,0.585-0.48,1.369-0.762,1.919c-0.232,0.456-0.352,0.944-0.602,1.357l-1.746,2.998
	c-0.225,0.332-0.318,0.468-0.556,0.785c-0.099,0.131-0.08,0.118-0.126,0.183c-0.013,0.018-0.029,0.043-0.042,0.061l-1.058,1.314
	c-0.526,0.587,0.435-0.468-0.098,0.108l-1.491,1.5c-0.406,0.448-0.966,0.853-1.434,1.248l-1.191,0.871
	c-1.582,1.139-3.362,2.066-5.129,2.913c-0.342,0.164-0.589,0.217-0.971,0.37c-1.204,0.482-2.849,1.195-4.167,1.195
	c0.508-0.759,0.434-0.791,0.739-1.324c0.011-0.02,0.029-0.043,0.041-0.062s0.031-0.042,0.043-0.06s0.032-0.041,0.044-0.06
	c0.012-0.018,0.031-0.042,0.043-0.06l0.213-0.406c0.099-0.191,0.011-0.001,0.109-0.201c0.108-0.222,0.126-0.356,0.231-0.593
	c0.581-1.313,0.749-1.723,1.179-3.05c0.081-0.251,0.105-0.382,0.191-0.634c0.183-0.54,0.776-3.03,0.776-3.555v-3.301l-0.675-3.141
	c-0.393-1.326-1.02-2.497-1.644-3.718c-0.53-1.04-1.087-1.743-1.772-2.662c-0.227-0.304-0.078-0.244-0.365-0.563
	c-0.206-0.229-0.297-0.295-0.492-0.539l-0.931-1.028c-0.292-0.262-0.199-0.22-0.44-0.487c-0.451-0.497-1.044-0.966-1.472-1.519
	c-0.307-0.395-0.577-0.666-0.919-1.04l-4.771-5.231c-0.014-0.016-0.034-0.04-0.047-0.056l-1.275-1.303
	c-0.25-0.295-0.25-0.237-0.5-0.532c-0.182-0.213-0.272-0.288-0.441-0.487l-1.258-1.422c-0.282-0.337-0.586-0.574-0.825-0.928
	c-0.06-0.088-0.156-0.219-0.222-0.294l-0.398-0.427c-0.014-0.016-0.034-0.039-0.048-0.055l-3.877-4.993
	c-0.061-0.093-0.084-0.136-0.162-0.251l-0.956-1.518c-0.256-0.392-1.174-2.196-1.313-2.607l-0.438-1.52
	c-0.113-0.374-0.198-0.448-0.228-0.804h-0.309C241.657,6.008,241.509,6.504,241.509,7.359z"/>
<path fill="#8BB4E0" d="M258.074,57.895c0.16,0.409,0.189,0.426,0.449,0.826l1.31,2.399c0.541,1.162,0.979,2.161,1.451,3.409
	c0.724,1.917,1.267,3.743,1.491,5.812c0.075,0.691,0.004,1.745,0.127,2.422l0.013,0.091c0.303-0.471,1.792-1.655,2.223-2.153
	c0.413-0.478,0.697-0.756,1.074-1.199l0.753-0.897c0.297-0.29,0.01-0.16,0.424-0.218c0.604,1.052-0.186,6.378-0.721,7.362
	c1.621-0.934,2.832-3.508,3.385-5.28c0.041-0.129,0.04-0.138,0.089-0.237c0.075-0.151,0.055-0.112,0.134-0.201
	c0.298,0.232,0.206,0.223,0.408,1.051c0.507,2.079,0.945,4.35,1.054,6.505c0.053,1.05-0.032,2.123,0.018,3.137
	c1.618-0.487,3.38-0.659,4.772-1.535c1.078-0.679,1.418-0.595,2.777-1.852c0.328-0.303,0.458-0.662,0.997-0.709
	c-0.014,3.469-0.841,5.355-2.291,7.985c-0.169,0.308-0.134,0.229-0.356,0.457c-0.26,0.267-0.626,0.504-0.648,0.938
	c1.324-0.021,2.292-1.344,3.113-1.459c-0.131,0.506-0.243,0.505-0.529,0.812c-0.446,0.482-1.429,1.723-1.901,2.025
	c-0.093,0.334-0.122,0.31-0.318,0.5c-0.154,0.148-0.247,0.214-0.439,0.386l-0.822,0.719c-0.475,0.451,0.132-0.013-0.819,0.728
	c-0.087,0.068-0.303,0.263-0.389,0.339l-1.302,1.066c-0.277,0.204-0.149,0.106-0.382,0.345c-0.521,0.533-0.293-0.082-0.937,0.603
	c-0.523,0.556-0.701,0.31-1.082,0.58c-0.364,0.258-0.074,0.079-0.305,0.468c-0.998,0.096-0.148,0.088-1.767,0.755
	c-0.354,0.146-0.477,0.325-0.735,0.491c-0.438,0.282-0.619,0.214-0.916,0.337c-0.549,0.229-0.018,0.18-1.441,0.702l-0.226,0.086
	c-0.761,0.27-0.33,0.212-0.842,0.391c-0.343,0.12-0.66,0.118-1.009,0.234c-0.025,0.008-0.05,0.02-0.075,0.029l-1.191,0.36
	c-0.025,0.008-0.052,0.018-0.076,0.026c-0.024,0.007-0.05,0.019-0.075,0.026c-0.424,0.13-1.143,0.184-2.016,0.457l-0.223,0.08
	l-2.503,0.274c-0.757,0.052-1.724,0.068-2.477,0.011c-0.201-0.914-0.197-0.986-0.16-2.096c-0.458,0.027,0.056-0.038-0.211,0.036
	l-0.699,0.267c-0.575,0.282,0.03,0.183-0.855,0.379c-0.432,0.096-0.51,0.225-0.858,0.375c-1.129,0.489-5.4,0.375-6.867,0.163
	c-0.106-0.016-0.373-0.042-0.543-0.072c-0.6-0.108-1.063-0.392-1.358-0.438c-0.124-0.02-0.47-0.013-0.615-0.023
	c-0.105-0.007-0.186-0.012-0.289-0.034c-0.217-0.046-0.207-0.068-0.231-0.077c-0.786-0.26-0.419,0.13-1.509-0.353
	c-0.14-0.062-0.318-0.106-0.466-0.15c-0.207-0.061-0.261-0.068-0.483-0.126l-0.47-0.162c-0.806-0.258-0.381,0.098-1.369-0.388
	l-0.958-0.284c-0.875-0.225-0.748-0.421-1.337-0.524c-0.585-0.102-0.461-0.039-0.936-0.294c-0.48-0.259-0.33-0.132-0.682-0.249
	l-3.727-1.53c-0.273-0.132-0.534-0.244-0.834-0.397c-0.021-0.011-0.047-0.025-0.069-0.036l-1.636-0.733
	c-0.087-0.039-0.133-0.052-0.22-0.094c-0.022-0.011-0.048-0.024-0.07-0.035c-0.594-0.294-2.13-0.916-2.655-1.245
	c-0.147-0.092-0.029,0.021-0.193-0.146c-0.208-0.212,0.027,0.145-0.164-0.228c-0.561,0.084-1.416-0.58-2.12-0.89
	c-0.499-0.22-0.561-0.353-0.698-0.424c-0.422-0.222-0.318,0.049-0.668-0.367c-0.29-0.343-0.271-0.22-0.655-0.465l-3.374-2.831
	c-0.232-0.198,0.077,0.125-0.146-0.154c-2.175-2.727-2.35-2.308-4.455-6.268c-0.09-0.17-0.206-0.551-0.29-0.742
	c-0.624-1.427-0.908-2.727-1.099-4.424c-0.081-0.713-0.123-1.317-0.108-2.064c0.007-0.362,0.041-0.589,0.07-0.933
	c0.016-0.185,0.013-0.303,0.063-0.492c0.063-0.235,0.09-0.271,0.233-0.432c0.204,0.348,0.586,2.399,1.181,3.772
	c0.14,0.323,0.268,0.521,0.4,0.832c0.425,1.001,0.743,1.461,1.35,2.375c0.792,1.191,2.426,3.033,3.577,3.84
	c0.937,0.658,1.685,1.325,2.911,2.039c1.295,0.754,1.986,1.029,3.312,1.633c0.545,0.248,1.156,0.504,1.77,0.693
	c1.232,0.381,2.499,0.862,3.809,1.136c0.895,0.186,3.591,0.742,4.314,0.744c-0.046-0.629-1.815-2.492-2.526-3.646
	c-2.152-3.491-3.848-5.999-5.134-10.252c-0.141-0.465-0.758-2.048-0.426-2.491c0.365,0.31,0.952,1.591,2.288,2.813
	c0.999,0.914,1.597,1.483,2.894,2.242c-0.624-2.27-1.247-4.155-1.655-6.768c-0.341-2.188-0.763-5.524-0.662-7.85
	c0.402,0.089,0.22-0.011,0.461,0.308l2.198,3.167c1.908,2.64,6.17,7.65,8.692,9.621c0.197,0.172,0.006-0.212,0.221,0.266
	c0.062-1,1.694-2.646,2.293-3.102c0.817-0.624,1.906-0.814,3.144-1.599c0.305-0.193,0.227-0.131,0.438-0.386
	c-0.469,0.154-0.113,0.011-0.515,0.269c-0.026-0.013-0.056-0.038-0.072-0.05c-0.477-0.336-0.325-0.28-1.023-0.28
	c-0.05,0.316,0.169,0.367-0.439,0.309c-0.68-0.065-0.038,0.015-0.369-0.191c-0.018-0.012-0.038-0.034-0.058-0.044
	c-0.301-0.164-0.969-0.077-1.377-0.077c-0.004-0.633,0.081-1.132-0.134-1.542l-0.137-0.209c-0.364-0.281-1.087-0.619-1.587-0.924
	c-4.712-2.881-6.145-6.634-3.293-11.933c2.792-5.187,6.638-7.39,9.184-11.264c0.167-0.443,0.604-0.911,0.859-1.389
	c1.32-2.462,1.143-3.283,1.641-4.562c0.091,1.228,0.259,1.643,0.061,3.005c-0.126,0.871-0.711,2.046-0.738,2.501l-0.107,0.466
	c0.499,0.039,0.836,0.085,1.258,0.221l3.439,0.833c0.373,0.029,0.45-0.056,0.821,0.061l0.718,0.212
	c0.024,0.008,0.049,0.02,0.074,0.027l0.651,0.182c0.697,0.216,1.748,0.452,2.473,0.452c0.113-0.701,0.299-1.191,0.392-2.041
	c0.189-1.705,0.108-1.712-0.072-3.277c-0.082-0.713-0.16-0.768-0.43-1.336c-0.375-0.791-0.065-0.936-0.602-1.183
	c-0.428,0.196-0.537,0.809-0.831,1.137c-0.012,0.013-0.035,0.035-0.047,0.047c-0.342,0.328-0.064,0.103-0.256,0.166
	c-0.109-0.474-0.185-0.417-0.071-0.939c0.355-0.117-0.398,0.032,0.204-0.005c0.309-0.018-0.009,0.049,0.245-0.025
	c0.337-0.936,0.16-1.52,0.354-2.508c0.102-0.516,0.117,0.165,0.149-0.559c0.037-0.819-0.252,0.008-0.17-1.684
	c0.106,0.441,0.076,0.304,0.396,0.45c-0.116-0.364-0.264-0.712-0.502-1.013c-0.147-0.186-0.065-0.152-0.294-0.25
	c-0.053,0.101-0.046,0.034-0.061,0.221c-0.005,0.06-0.005,0.142,0.005,0.248c0.072,0.729,0.218,1.241,0.224,2.033
	c0.007,1.128,0.022,1.617-0.303,2.534c-0.461-0.199-0.543-1.075-0.68-1.533c-0.48-1.598-0.946-3.098-1.652-4.639
	c-0.121-0.265-0.077-0.137-0.149-0.388c-0.206-0.713-0.846-1.755-1.164-2.528c-0.376-0.914-0.897-1.919-1.414-2.798l-1.753-2.976
	c-0.185-0.223-0.234-0.415-0.378-0.688c-0.01-0.019-0.024-0.044-0.035-0.062l-1.026-1.549c-0.549-0.918-1.162-1.646-1.719-2.5
	c-0.241-0.37-0.893-1.091-1.537-2.081c-0.201-0.31,0.088-0.19-0.318-0.234c-0.109,0.218,0.236,2.344,0.263,2.942
	c0.314,7.017-0.531,12.98-6.031,17.746c-1.157,1.003-2.72,2.079-4.052,2.743c-1.678,0.837-4.287-0.366-5.2-1.238
	c-3.244-3.098-2.201-8.487-2.461-11.264c-0.419-0.039-0.525,0.141-0.788,0.349c-0.396,0.313-0.529,0.213-0.348,0.676
	c-0.884-0.001-0.795,0.144-1.286,0.583c-0.75,0.672-1.176,1.182-1.739,1.974c-0.253,0.356-0.296,0.212-0.444,0.464
	c-0.224,0.381-0.061,0.32-0.362,0.685l-0.469,0.776c-0.011,0.023-0.023,0.05-0.033,0.073l-0.848,1.619
	c-0.635,1.208-1.07,2.852-1.415,4.211c-0.769,3.025-1.227,9.784-0.895,12.3c0.217,1.651,0.154,3.546,0.365,5.221
	c0.218,1.737,0.372,3.407,0.652,5.128l1.155,6.457c0.043,0.274,0.061,0.596,0.134,0.796c0.251,0.688,0.357,1.551,0.549,2.311
	c0.258,1.02,0.481,2.205,0.702,3.149c0.254,1.085,0.655,2.044,0.715,3.123c-0.818-0.037-2.818-2.18-3.509-2.732
	c-0.419-0.335-0.678-0.742-1.044-1.113c-0.668-0.677-1.237-1.447-1.899-2.229c-0.372-0.441-1.327-1.916-1.696-2.541
	c-0.443-0.751-0.976-1.496-1.321-2.276c-1.157-2.618-1.608-3.493-2.642-6.332c-0.103-0.282-0.195-0.47-0.25-0.764
	c-0.066-0.359-0.066-0.517-0.179-0.88c-0.136-0.439-0.295-1.228-0.57-1.574c-0.265,1.35-0.299,2.789-0.473,4.075
	c-0.381,2.83-0.308,5.939-0.191,8.819c0.034,0.834,0.117,0.15,0.218,0.818c0.045,0.293,0.02,0.815,0.033,1.137
	c0.057,1.366,0.876,5.353,1.377,6.649l0.31,0.816c0.192,0.621,0.267,1.22,0.522,1.881l1.214,2.687
	c0.311,0.487,0.476,0.995,0.804,1.46c0.413,0.585,0.853,1.459,1.567,2.461c1.615,2.262,4.037,5.118,6.326,6.573
	c0.372,0.237,0.606,0.542,1.159,0.898l1.392,0.975c0.664,0.464,1.428,0.89,2.13,1.274l0.537,0.29
	c0.02,0.011,0.046,0.026,0.066,0.038l0.864,0.472c1.409,0.543,2.408,1.268,4.018,1.753c0.854,0.257,1.646,0.678,2.483,0.915
	l1.412,0.277c0.626,0.073,0.194,0.007,0.431,0.16l0.424,0.21c0.745,0.194,1.417,0.495,2.214,0.651l3.699,0.84
	c0.388,0.108,0.534,0.137,0.968,0.174c0.57,0.05,0.447,0.107,1.007,0.209c1.305,0.237,2.571,0.399,4.043,0.534
	c0.488,0.045,0.195,0.063,0.64,0.162c1.482,0.329,6.495,0.586,7.814,0.561c1.247-0.023,2.345-0.267,3.457-0.575l1.411-0.343
	c1.15-0.185,1.682-0.544,2.624-0.779c0.596-0.149,1.655-0.447,2.11-0.693c0.16-0.086,0.027-0.035,0.185-0.111
	c0.2-0.097,0.045-0.017,0.22-0.084c0.385-0.148,0.796-0.445,1.187-0.569c0.39-0.125,0.889-0.272,1.275-0.493l0.804-0.438
	c0.02-0.011,0.046-0.026,0.066-0.038l1.631-0.943c0.114-0.072,0.251-0.177,0.362-0.253c0.238-0.163,0.484-0.281,0.663-0.474
	c0.17-0.184,0.122-0.184,0.325-0.282c0.869-0.421,2.116-1.541,2.902-2.259l1.394-1.393c0.147-0.146,0.15-0.171,0.278-0.346
	l0.576-0.654c0.5-0.552,1.193-1.224,1.517-1.895l0.482-0.643c0.201-0.204,0.969-1.409,1.069-1.706l0.149-0.387
	c0.305-0.632,0.587-0.777,0.899-1.567l0.508-1.144c0.189-0.402,0.302-0.946,0.503-1.258c0.246-0.38,0.251-0.268,0.363-0.744
	c0.034-0.145,0.054-0.301,0.1-0.437l0.299-0.852c0.125-0.608,0.318-0.883,0.293-1.562c0.354-0.239,0.315-0.334,0.435-0.774
	l0.418-1.983c0.15-0.534,0.104,0.052,0.217-0.549l0.705-4.693c0.007-0.025,0.018-0.05,0.025-0.077
	c0.206-0.831,0.117-3.373,0.262-4.318c-0.607-0.013-1.362,0.339-1.839,0.566c-0.357,0.17-0.513,0.159-0.883,0.262
	c-0.913,0.254-1.891,0.666-2.765,0.847l-1.892,0.45c-2.995,0.486-5.313,0.728-8.065-0.695c0.121-0.541,0.336-0.537,0.806-0.765
	c0.31-0.15,0.578-0.318,0.938-0.526c0.558-0.322,1.161-0.788,1.69-1.175l1.623-1.272c0.798-0.662,1.643-1.391,2.277-2.16
	c0.647-0.786,0.899-1.004,1.635-1.98c0.719-0.953,1.354-1.927,1.997-2.953c0.973-1.551,2.008-3.081,2.737-4.789
	c0.705-1.65,1.53-3.602,1.81-5.511c0.3-2.044,0.17-4.132-0.332-6.041c-0.087-0.334-0.054-0.139-0.204-0.507l-0.69-1.474
	c-0.24-0.474,0.048-0.336-0.408-0.413c-0.322,0.19-0.06-0.077-0.236,0.373c-0.039,0.099-0.042,0.132-0.08,0.232l-0.433,1.428
	c-0.171,0.726-0.586,1.38-0.849,2.048c-0.289,0.734-1.832,3.24-2.419,3.961l-0.997,1.167c-0.499,0.505-0.906,0.899-1.482,1.416
	c-0.806,0.723-1.44,1.486-2.276,2.058c-0.212,0.145-0.259,0.115-0.439,0.275c-0.107,0.095-0.207,0.242-0.354,0.365
	c-0.814,0.679-2.368,1.812-3.343,2.336c-2.9,1.558-4.647,2.712-8.03,3.412C262.383,57.926,259.257,58.369,258.074,57.895z"/>
<path fill="#77A0CD" d="M248.462,41.413c-0.396,0.302-0.162,0.343-0.449,0.782l-1.661,2.392c-3.05,4.181-5.977,9.633-5.287,15.125
	c0.475,3.786,1.749,5.568,1.832,6.392l-0.563-0.125l0.137,0.209c0.215,0.409,0.129,0.908,0.134,1.542
	c0.409,0,1.077-0.087,1.377,0.077c0.019,0.011,0.039,0.033,0.058,0.044c0.331,0.207-0.311,0.126,0.369,0.191
	c0.608,0.058,0.389,0.007,0.439-0.309c0.698,0,0.546-0.056,1.023,0.28c0.017,0.012,0.046,0.037,0.072,0.05
	c0.402-0.258,0.046-0.115,0.515-0.269c0.734-0.062,2.55-2.12,3.116-3.062c0.289-0.48,0.245-0.404,0.493-0.531l0.139,0.294
	c0.01,0.036,0.018,0.062,0.027,0.102c0.038,0.167,0.166,2.56,0.282,3.243c0.162,0.949,0.286,2.561,0.666,3.351l0.296,0.188
	c0.004,0.003,0.022,0.016,0.032,0.023l-0.007,0.623c-0.003,0.288-0.049,0.083,0.039,0.415c0.01,0.038,0.03,0.07,0.04,0.101
	s0.024,0.072,0.048,0.1c-0.105-0.657,0.285-0.882,0.96-2.119c0.36-0.661,0.633-1.325,0.917-2.067
	c1.191-3.111,1.376-7.46,0.789-10.688l-1.067-5.075c0.867,0.233,2.942,2.747,3.566,3.53c0.378,0.474,0.659,1.023,1.022,1.39
	c-0.079-0.532,0.427-0.893,0.754-1.322c1.759-2.302,2.691-4.71,3.075-7.551c0.377-2.786-0.061-5.014-0.776-7.621
	c-0.142-0.518-0.111-0.533-0.324-1.019c-0.009-0.021-0.023-0.046-0.032-0.068c-0.009-0.021-0.022-0.047-0.031-0.07
	c-0.743-1.954-0.862-2.936-1.977-5.044l-1.456-2.805c-0.32-0.146-0.29-0.009-0.396-0.45c-0.081,1.692,0.207,0.866,0.17,1.684
	c-0.032,0.724-0.047,0.043-0.149,0.559c-0.194,0.988-0.017,1.572-0.354,2.508c-0.254,0.074,0.064,0.006-0.245,0.025
	c-0.602,0.037,0.152-0.112-0.204,0.005c-0.114,0.522-0.038,0.464,0.071,0.939c0.193-0.063-0.086,0.162,0.256-0.166
	c0.012-0.012,0.035-0.034,0.047-0.047c0.294-0.329,0.403-0.941,0.831-1.137c0.536,0.247,0.227,0.392,0.602,1.183
	c0.27,0.569,0.348,0.624,0.43,1.336c0.18,1.565,0.261,1.572,0.072,3.277c-0.094,0.85-0.28,1.34-0.392,2.041
	c-0.726,0-1.776-0.235-2.473-0.452l-0.651-0.182c-0.024-0.008-0.049-0.02-0.074-0.027l-0.718-0.212
	c-0.371-0.116-0.448-0.031-0.821-0.061l-3.439-0.833c-0.422-0.136-0.759-0.182-1.258-0.221L248.462,41.413z"/>
<path fill="#8EA7C7" d="M240.583,72.881c-0.214-0.479-0.023-0.094-0.221-0.266c0.044,0.649-0.393,1.565-0.471,2.308
	c-0.099,0.95,0.068,1.701,0.041,2.545c-0.379,0.004-1.591-0.658-2.087-0.862c-1.842-0.757-3.802-1.058-4.426-1.339
	c-0.652-0.293-1.32-0.756-2.007-0.987c0.224,0.434,0.384,0.985,0.547,1.422c0.79,2.118,3.554,6.64,4.956,8.025
	c0.247,0.243,0.098,0.118,0.329,0.246c0.146-0.559,0.324-0.125,0.513-0.05c0.584,0.234,0.574-0.052,0.76-0.326
	c0.538,0,1.632,0.088,1.982-0.1c0.327-0.175-0.065-0.211,0.794-0.208l5.163,0.009c8.209-0.021,16.535,0.04,24.713-0.022
	c-0.079,0.518-0.294,1.164-0.22,1.612c0.12-0.131,0.035,0.019,0.128-0.182c0.081-0.175,0.019-0.002,0.079-0.228
	c0.191-0.711,0.5-3.032,0.597-3.756c-0.385,0.038,0.01-0.005-0.244,0.05l-0.578,0.119c-1.384,0.224-5.426,0.28-6.567,0.13
	c-0.044-0.377,0.315-0.803,0.538-1.172c0.541-0.896,1.514-2.816,1.656-3.808c-1.12,0.758-4.983,4.668-5.559,4.834
	c0.025-0.506,1.049-2.92,1.227-3.654c0.275-1.139,0.6-4.181,0.686-4.369l-0.013-0.091c-0.322,0.222-0.433,0.381-0.733,0.636
	c-1.355,1.15-3.837,2.688-5.393,3.472c-0.883,0.444-1.057,0.317-1.828-0.143c-2.355-1.408-2.912-3.615-3.319-4.088
	c-0.024-0.028-0.038-0.069-0.048-0.1c-0.01-0.031-0.03-0.063-0.04-0.101c-0.088-0.331-0.042-0.127-0.039-0.415l0.007-0.623
	c-0.01-0.008-0.028-0.021-0.032-0.023l-0.296-0.188c0.208,1.133,0.8,1.087-1.334,2.89l-0.78,0.563
	c-0.918,0.616-1.765,0.919-2.916,0.92c-1.307,0.002-2.323-0.388-3.243-0.913C242.374,74.345,240.957,73.407,240.583,72.881z"/>
<path fill="#537BAA" d="M230.065,87.463c0.319,0.128,2.333,1.797,2.884,2.197c1.831,1.332,4.239,2.646,6.359,3.552
	c1.174,0.502,2.453,0.894,3.667,1.365c5.029,1.952,10.811,1.736,12.577-3.973c0.129-0.417,0.129-0.67,0.392-0.997
	c0.908,0.125,1.645,1.798,1.709,2.939c0.116,2.077-0.63,3.403-0.521,4.071c3.122,0.761,8.144-2.341,10.364-4.892
	c0.491-0.564,1.858-2.294,1.993-3.13l0.3-0.794l-0.338-0.33c-4.708,0-9.417,0.012-14.125,0.012l-13.708-0.002l-0.243,0.074
	c-0.013-0.022-0.05,0.02-0.072,0.035c-0.003,0.082,0.341,0.285,0.521,0.401c0.446,0.289,0.418,0.1,0.405,0.638
	c-0.206,0.115-0.356,0.176-0.688,0.203c-0.347,0.034-0.883,0.271-1.41,0.342c-1.247,0.17-3.66-0.007-4.796-0.364
	c-1.076-0.338-3.025-0.817-4.087-1.279c-0.451-0.196-0.719-0.452-1.328-0.49C230.013,87.336,230.042,87.308,230.065,87.463z"/>
<path fill="#C7E1F5" d="M224.856,88.892l3.606-0.001l0.008-0.736l1.285,0.034c0.112-0.168,0.035-0.087,0.178-0.207
	c0.227-0.19,0.03-0.087,0.3-0.173c-0.226-0.229-0.046-0.057-0.168-0.346c-0.023-0.155-0.053-0.127-0.146-0.422
	c0.609,0.039,0.877,0.294,1.328,0.49c1.062,0.462,3.011,0.94,4.087,1.279c1.136,0.357,3.55,0.535,4.796,0.364
	c0.526-0.072,1.063-0.308,1.41-0.342l0.254-0.227c0.171-0.165,0.025,0.052,0.167-0.185c-0.199-0.337-0.265-0.289-0.702-0.581
	c-0.98-0.654-3.881-3.288-4.014-3.864c-0.231-0.128-0.082-0.003-0.329-0.246c-1.402-1.385-4.167-5.907-4.956-8.025
	c-0.163-0.438-0.323-0.988-0.547-1.422c-0.015-0.165,0.049-0.057-0.085-0.143c-1.297-0.759-1.895-1.329-2.894-2.242
	c-1.336-1.222-1.923-2.503-2.288-2.813c-0.332,0.443,0.286,2.026,0.426,2.491c1.286,4.253,2.982,6.761,5.134,10.252
	c0.711,1.154,2.48,3.016,2.526,3.646c-0.724-0.002-3.42-0.558-4.314-0.744c-1.31-0.273-2.577-0.755-3.809-1.136
	c-0.614-0.189-1.225-0.445-1.77-0.693c-1.327-0.604-2.018-0.879-3.312-1.633c-1.226-0.714-1.974-1.381-2.911-2.039
	c-1.151-0.808-2.785-2.649-3.577-3.84c-0.607-0.914-0.925-1.374-1.35-2.375c-0.131-0.31-0.259-0.508-0.4-0.832
	c-0.595-1.374-0.977-3.424-1.181-3.772c-0.143,0.161-0.17,0.197-0.233,0.432c-0.051,0.189-0.047,0.307-0.063,0.492
	c-0.029,0.344-0.063,0.571-0.07,0.933c-0.014,0.747,0.028,1.351,0.108,2.064c0.191,1.697,0.475,2.998,1.099,4.424
	c0.084,0.191,0.2,0.573,0.29,0.742c2.105,3.96,2.28,3.54,4.455,6.268c0.223,0.28-0.086-0.044,0.146,0.154l3.374,2.831
	c0.384,0.245,0.365,0.122,0.655,0.465c0.35,0.416,0.246,0.145,0.668,0.367c0.137,0.072,0.199,0.205,0.698,0.424
	C223.44,88.313,224.295,88.976,224.856,88.892z"/>
<path fill="#0D4C87" d="M251.629,72.64c0.407,0.473,0.964,2.68,3.319,4.088c0.771,0.46,0.945,0.587,1.828,0.143
	c1.556-0.784,4.038-2.321,5.393-3.472c0.301-0.255,0.412-0.414,0.733-0.636c-0.123-0.677-0.052-1.731-0.127-2.422
	c-0.224-2.069-0.767-3.895-1.491-5.812c-0.472-1.249-0.91-2.248-1.451-3.409l-1.31-2.399c-0.261-0.4-0.289-0.417-0.449-0.826
	c-0.196-0.042-0.153-0.08-0.257-0.284c-0.363-0.368-0.644-0.917-1.022-1.39c-0.624-0.783-2.7-3.297-3.566-3.53l1.067,5.075
	c0.587,3.228,0.402,7.577-0.789,10.688c-0.285,0.742-0.557,1.407-0.917,2.067C251.914,71.758,251.524,71.983,251.629,72.64z"/>
<path fill="#77A0CD" d="M237.246,83.975c0.133,0.577,3.034,3.21,4.014,3.864c0.437,0.291,0.502,0.243,0.702,0.581
	c-0.142,0.237,0.004,0.02-0.167,0.185l-0.254,0.227c0.332-0.027,0.482-0.088,0.688-0.203c0.014-0.538,0.042-0.349-0.405-0.638
	c-0.18-0.116-0.524-0.318-0.521-0.401c0.022-0.015,0.059-0.058,0.072-0.035l0.243-0.074l13.708,0.002
	c4.708,0,9.417-0.012,14.125-0.012l0.338,0.33l-0.3,0.794c0.347-0.249,0.175-0.238,0.435-0.645c0.259-0.404-0.174,0.224,0.093-0.127
	l0.105-0.119c0.023-0.371,0.302-0.91,0.456-1.341c0.157-0.443,0.387-1.02,0.373-1.472c-0.074-0.449,0.141-1.094,0.22-1.612
	c-8.178,0.062-16.504,0.001-24.713,0.022l-5.163-0.009c-0.86-0.004-0.468,0.032-0.794,0.208c-0.35,0.188-1.444,0.1-1.982,0.1
	c-0.187,0.273-0.176,0.56-0.76,0.326C237.569,83.849,237.391,83.415,237.246,83.975z"/>
<path fill="#B5D2EE" d="M224.856,88.892c0.191,0.372-0.044,0.016,0.164,0.228c0.164,0.167,0.046,0.054,0.193,0.146
	c0.525,0.329,2.061,0.951,2.655,1.245c0.021,0.011,0.048,0.024,0.07,0.035c0.087,0.042,0.133,0.055,0.22,0.094l1.636,0.733
	c0.021,0.011,0.047,0.025,0.069,0.036c0.3,0.153,0.56,0.265,0.834,0.397l3.727,1.53c0.352,0.117,0.201-0.01,0.682,0.249
	c0.475,0.255,0.35,0.192,0.936,0.294c0.589,0.102,0.462,0.299,1.337,0.524l0.958,0.284c0.987,0.485,0.563,0.13,1.369,0.388
	l0.47,0.162c0.222,0.058,0.276,0.065,0.483,0.126c0.148,0.044,0.326,0.088,0.466,0.15c1.09,0.483,0.724,0.093,1.509,0.353
	c0.025,0.008,0.015,0.031,0.231,0.077c0.103,0.021,0.184,0.026,0.289,0.034c0.145,0.01,0.491,0.003,0.615,0.023
	c0.296,0.046,0.759,0.33,1.358,0.438c0.17,0.031,0.437,0.057,0.543,0.072c1.467,0.212,5.738,0.326,6.867-0.163
	c0.348-0.15,0.426-0.279,0.858-0.375c0.886-0.196,0.28-0.097,0.855-0.379l0.699-0.267c0.267-0.074-0.247-0.009,0.211-0.036
	c-0.037,1.109-0.04,1.182,0.16,2.096c0.753,0.057,1.72,0.041,2.477-0.011l2.503-0.274l0.223-0.08
	c0.874-0.273,1.592-0.327,2.016-0.457c0.024-0.007,0.05-0.019,0.075-0.026c0.024-0.008,0.051-0.018,0.076-0.026l1.191-0.36
	c0.025-0.009,0.05-0.021,0.075-0.029c0.349-0.116,0.665-0.114,1.009-0.234c0.512-0.179,0.081-0.122,0.842-0.391l0.226-0.086
	c1.423-0.522,0.892-0.474,1.441-0.702c0.297-0.124,0.478-0.056,0.916-0.337c0.259-0.166,0.381-0.345,0.735-0.491
	c1.618-0.668,0.768-0.659,1.767-0.755c0.231-0.389-0.059-0.21,0.305-0.468c0.38-0.27,0.559-0.024,1.082-0.58
	c0.645-0.686,0.417-0.07,0.937-0.603c0.233-0.239,0.105-0.142,0.382-0.345l1.302-1.066c0.086-0.076,0.301-0.27,0.389-0.339
	c0.951-0.741,0.344-0.276,0.819-0.728l0.822-0.719c0.192-0.172,0.285-0.238,0.439-0.386c0.197-0.189,0.225-0.166,0.318-0.5
	c-0.706,0.091-0.923,0.141-1.214,0.941c-0.419-0.158-0.268-0.143-0.834-0.15c-1.081-0.013-1.298-0.079-1.946,0.138
	c-0.585,0.195-2.154,0.139-2.76-0.057c-0.308-0.1-0.357-0.058-0.699-0.105c-0.118-0.301-0.069-0.095-0.114-0.45l-0.105,0.119
	c-0.267,0.351,0.167-0.277-0.093,0.127c-0.26,0.406-0.088,0.396-0.435,0.645c-0.134,0.836-1.502,2.566-1.993,3.13
	c-2.22,2.551-7.242,5.653-10.364,4.892c-0.109-0.668,0.637-1.994,0.521-4.071c-0.064-1.141-0.801-2.814-1.709-2.939
	c-0.264,0.327-0.263,0.58-0.392,0.997c-1.766,5.71-7.548,5.925-12.577,3.973c-1.213-0.472-2.493-0.863-3.667-1.365
	c-2.12-0.906-4.529-2.221-6.359-3.552c-0.551-0.4-2.564-2.069-2.884-2.197c0.122,0.289-0.058,0.117,0.168,0.346
	c-0.27,0.087-0.073-0.017-0.3,0.173c-0.143,0.12-0.065,0.039-0.178,0.207l-1.285-0.034l-0.008,0.736L224.856,88.892z"/>
<path fill="#0D4C87" d="M231.329,74.137c0.133,0.086,0.069-0.022,0.085,0.143c0.687,0.231,1.355,0.694,2.007,0.987
	c0.624,0.281,2.584,0.582,4.426,1.339c0.496,0.204,1.708,0.866,2.087,0.862c0.026-0.844-0.141-1.596-0.041-2.545
	c0.078-0.743,0.514-1.658,0.471-2.308c-2.522-1.971-6.784-6.981-8.692-9.621l-2.198-3.167c-0.241-0.319-0.059-0.219-0.461-0.308
	c-0.102,2.326,0.32,5.662,0.662,7.85C230.081,69.983,230.705,71.867,231.329,74.137z"/>
<path fill="#0D4C87" d="M246.639,41.858c-2.546,3.874-6.392,6.077-9.184,11.264c-2.852,5.299-1.419,9.052,3.293,11.933
	c0.499,0.305,1.223,0.643,1.587,0.924l0.563,0.125c-0.083-0.824-1.357-2.606-1.832-6.392c-0.69-5.493,2.237-10.944,5.287-15.125
	l1.661-2.392c0.025-0.436,0.17-0.645-0.973-0.729L246.639,41.858z"/>
<path fill="#C7E1F5" d="M271.756,80.725c-0.097,0.725-0.406,3.045-0.597,3.756c-0.06,0.226,0.002,0.053-0.079,0.228
	c-0.093,0.201-0.008,0.051-0.128,0.182c0.014,0.452-0.216,1.029-0.373,1.472c-0.153,0.432-0.433,0.971-0.456,1.341
	c0.045,0.355-0.004,0.149,0.114,0.45c0.342,0.048,0.391,0.006,0.699,0.105c0.606,0.196,2.175,0.252,2.76,0.057
	c0.648-0.217,0.865-0.15,1.946-0.138c0.566,0.007,0.415-0.008,0.834,0.15c0.291-0.8,0.509-0.85,1.214-0.941
	c0.472-0.302,1.456-1.543,1.901-2.025c0.286-0.308,0.398-0.306,0.529-0.812c-0.821,0.115-1.79,1.438-3.113,1.459
	c0.022-0.435,0.388-0.671,0.648-0.938c0.222-0.228,0.187-0.149,0.356-0.457c1.45-2.63,2.277-4.517,2.291-7.985
	c-0.538,0.047-0.669,0.407-0.997,0.709c-1.359,1.257-1.699,1.173-2.777,1.852C275.136,80.066,273.374,80.238,271.756,80.725z"/>
<path fill="#C7E1F5" d="M243.2,33.623l0.004,0.703c0.262,0.035,0.476,0.058,0.728-0.006l0.7-0.227
	c1.247-0.409,2.054,0.158,3.742-0.39c0.454-0.148,0.777-0.07,1.337-0.078l0.059-0.687c1.091,0,2.02,0.125,2.843-0.134
	c0.427-0.134,0.865-0.066,1.373-0.066c0.049-0.44,0.074-0.131,0.012-0.568c0.218-0.853-2.733-5.296-3.237-6.012
	c-0.889-1.261-2.087-2.672-3.21-3.802c-0.263-0.265-0.374-0.346-0.579-0.555c-0.28-0.285-0.331-0.455-0.718-0.545
	c-0.189,0.365,0.078,1.204,0.143,1.605c0.105,0.644,0.085,1.374,0.074,2.031c-0.02,1.139-0.293,2.505-0.606,3.419
	c-0.512,1.498-1.027,2.752-1.902,4.083C243.702,32.789,243.252,33.189,243.2,33.623z"/>
<path fill="#C7E1F5" d="M246.458,67.795c-0.211,0.255-0.134,0.193-0.438,0.386c-1.237,0.784-2.326,0.975-3.144,1.599
	c-0.599,0.456-2.231,2.102-2.293,3.102c0.374,0.525,1.791,1.464,2.326,1.769c0.92,0.525,1.936,0.914,3.243,0.913
	c1.151-0.001,1.998-0.304,2.916-0.92l0.78-0.563c2.134-1.803,1.542-1.757,1.334-2.89c-0.379-0.79-0.503-2.403-0.666-3.351
	c-0.117-0.683-0.245-3.076-0.282-3.243c-0.009-0.04-0.017-0.066-0.027-0.102l-0.139-0.294c-0.248,0.127-0.205,0.05-0.493,0.531
	C249.008,65.674,247.192,67.733,246.458,67.795z"/>
<path fill="#B5D2EE" d="M220.888,37.906c-0.294,0.253-0.344,0.976-0.413,1.392c-0.177,1.056-0.195,4.32,0.24,4.673
	c0.234,0.19,3.515,0.295,4.355,0.043c0.749-0.225,1.213-0.168,2.065-0.414c0.162-0.047,0.268-0.057,0.42-0.1
	c0.351-0.101,0.02,0.008,0.283-0.116c0.527-0.249,0.59-0.22,1.14-0.413l0.227-0.087c1.155-0.384,0.989-0.546,1.778-0.798
	c0.373-0.119,0.1-0.018,0.368-0.142c0.222-0.102,0.18-0.087,0.375-0.156c0.594-0.211,0.756-0.379,1.189-0.706
	c-0.264-0.245-0.241-0.215-0.596-0.38c-0.244-0.113-0.447-0.21-0.686-0.345l-0.323-0.191c-0.11-0.06-0.252-0.116-0.354-0.163
	l-3.213-2.333c0.127,0.688,0.364,0.372,0.572,0.834c-0.441,0.003-0.911-0.017-1.348-0.004l-0.652,0.126
	c-0.345,0.12-0.345,0.085-0.784,0.085l-0.002,0.516h-1.441v0.722h-2.578c-0.169,0.204-0.205,0.282-0.205,0.619
	c-0.128,0-0.288-0.01-0.412,0.012l-0.169,0.063c-0.005-0.014-0.034,0.013-0.038,0.028c0-0.834-0.101-0.489,0.042-1.259
	C220.782,39.1,220.888,38.354,220.888,37.906z"/>
<path fill="#0D4C87" d="M266.668,75.75l-0.107,0.295c-0.142,0.992-1.115,2.912-1.656,3.808c-0.223,0.369-0.582,0.794-0.538,1.172
	c1.141,0.15,5.183,0.094,6.567-0.13l0.578-0.119c0.253-0.056-0.142-0.013,0.244-0.05c-0.05-1.015,0.035-2.087-0.018-3.137
	c-0.109-2.155-0.547-4.427-1.054-6.505c-0.202-0.828-0.109-0.819-0.408-1.051c-0.079,0.089-0.059,0.05-0.134,0.201
	c-0.049,0.099-0.048,0.108-0.089,0.237C269.5,72.242,268.289,74.817,266.668,75.75z"/>
<path fill="#C7E1F5" d="M262.915,72.855c-0.086,0.188-0.411,3.23-0.686,4.369c-0.178,0.734-1.203,3.148-1.227,3.654
	c0.576-0.165,4.44-4.075,5.559-4.834l0.107-0.295c0.535-0.985,1.326-6.31,0.721-7.362c-0.414,0.058-0.126-0.072-0.424,0.218
	l-0.753,0.897c-0.377,0.442-0.661,0.721-1.074,1.199C264.707,71.2,263.218,72.384,262.915,72.855z"/>
<path fill="#C7E1F5" d="M220.888,37.906c0,0.448-0.106,1.194-0.164,1.506c-0.143,0.771-0.042,0.425-0.042,1.259
	c0.004-0.015,0.033-0.042,0.038-0.028l0.169-0.063c0.125-0.021,0.284-0.012,0.412-0.012c0-0.337,0.036-0.415,0.205-0.619h2.578
	v-0.722h1.441l0.002-0.516c0.439,0,0.439,0.035,0.784-0.085l0.652-0.126c0.437-0.013,0.906,0.007,1.348,0.004
	c-0.208-0.462-0.445-0.146-0.572-0.834l-1.035-1.27c-0.383-0.459-0.697-0.951-1.017-1.46c-0.808-1.284-1.249-3.104-1.604-3.359
	c-0.495,0.149-1.629,2.28-1.913,2.845C221.846,35.076,220.875,37.208,220.888,37.906z"/>
<path fill="#B5D2EE" d="M243.2,33.623c-0.169,0.189-0.051-0.023-0.192,0.319c-0.261,0.635-0.326,2.191,0.048,2.671
	c0.205-0.117,0.273-0.011,0.273-0.722c0.001,0.017,0.016,0.026,0.021,0.047c0.005,0.022,0.022,0.039,0.029,0.044
	c0.232,0.155,0.293,0.115,0.605,0.116c0.031,0.085,0.05,0.305,0.206,0.503h1.237c0.103-0.133,0.055-0.055,0.137-0.254
	c0.038-0.092,0.036-0.16,0.069-0.25c0.632,0,1.644-0.154,2.208-0.216c0.511-0.057,0.391-0.033,0.418,0.31l0.119-0.165
	c0.401-0.481,0.03,0.088,0.579-0.492c0.051-0.054,0.138-0.152,0.275-0.236c0.231-0.14,0.058-0.049,0.331-0.053
	c0.012,0,0.042,0.001,0.054,0l1.065-0.066c1.367,0.01,2.734-0.001,4.1-0.004c0.02-0.854-0.081-2.478-0.787-3.005
	c0.062,0.438,0.038,0.129-0.012,0.568c-0.508,0-0.946-0.068-1.373,0.066c-0.822,0.258-1.751,0.134-2.843,0.134l-0.059,0.687
	c-0.56,0.008-0.883-0.07-1.337,0.078c-1.688,0.547-2.496-0.02-3.742,0.39l-0.7,0.227c-0.252,0.064-0.466,0.041-0.728,0.006
	L243.2,33.623z"/>
<path fill="#537BAA" d="M246.639,41.858l0.401-0.392c1.143,0.084,0.998,0.293,0.973,0.729c0.287-0.438,0.053-0.479,0.449-0.782
	c0.026-0.455,0.612-1.63,0.738-2.501c0.198-1.362,0.031-1.777-0.061-3.005c-0.498,1.279-0.321,2.1-1.641,4.562
	C247.242,40.947,246.806,41.415,246.639,41.858z"/>
</svg>
